<?xml version="1.0" encoding="UTF-8" standalone="no"?>
<!-- Created with sK1/UniConvertor (http://sk1project.org/) -->

<svg
   xmlns:dc="http://purl.org/dc/elements/1.1/"
   xmlns:cc="http://creativecommons.org/ns#"
   xmlns:rdf="http://www.w3.org/1999/02/22-rdf-syntax-ns#"
   xmlns:svg="http://www.w3.org/2000/svg"
   xmlns="http://www.w3.org/2000/svg"
   xmlns:sodipodi="http://sodipodi.sourceforge.net/DTD/sodipodi-0.dtd"
   xmlns:inkscape="http://www.inkscape.org/namespaces/inkscape"
   width="633.52338"
   height="403.6665"
   viewBox="0 0 506.81872 322.93319"
   id="svg2"
   version="1.1"
   inkscape:version="0.48.3.1 r9886"
   sodipodi:docname="cefet_logo2.svg"
   style="fill-rule:evenodd">
  <metadata
     id="metadata26">
    <rdf:RDF>
      <cc:Work
         rdf:about="">
        <dc:format>image/svg+xml</dc:format>
        <dc:type
           rdf:resource="http://purl.org/dc/dcmitype/StillImage" />
        <dc:title></dc:title>
      </cc:Work>
    </rdf:RDF>
  </metadata>
  <sodipodi:namedview
     pagecolor="#ffffff"
     bordercolor="#666666"
     borderopacity="1"
     objecttolerance="10"
     gridtolerance="10"
     guidetolerance="10"
     inkscape:pageopacity="0"
     inkscape:pageshadow="2"
     inkscape:window-width="1366"
     inkscape:window-height="719"
     id="namedview24"
     showgrid="false"
     inkscape:zoom="0.52511718"
     inkscape:cx="-1.1840757"
     inkscape:cy="154.84378"
     inkscape:window-x="0"
     inkscape:window-y="27"
     inkscape:window-maximized="1"
     inkscape:current-layer="svg2"
     fit-margin-top="0"
     fit-margin-left="0"
     fit-margin-right="0"
     fit-margin-bottom="0" />
  <defs
     id="defs4" />
  <path
     inkscape:connector-curvature="0"
     id="path18"
     d="m 149.95072,254.07398 47.259,0 -2.641,12.215 -27.399,0 -2.906,14.222 26.228,0 -2.593,12.309 -26.324,0 -5.656,27.038 -20.003,0 14.035,-65.784 z m 155.511,30.447 19.125,0 -2.588,11.946 -19.126,0 2.589,-11.946 z m -215.443002,-43.807 -5.055,14.728 c -11.87,-2.996 -26.538,-3.57 -36.9682,0.189 -24.1112,8.693 -27.7104,45.089 1.7842,49.211 8.531,1.06 20.803,0.474 28.244,-3.345 l -4.239,18.941 c -16.979,4.307 -41.9536,3.382 -57.4494,-5.485 -22.8069997,-13.048 -19.5994997,-43.49 -3.4618,-60.614 17.1878,-18.238 50.0312,-20.838 77.1452,-13.625 z m 113.940002,13.36 48.793,0 -2.635,12.215 -29.663,0 -2.732,13.195 27.953,0 -2.498,11.852 -28,0 -3.64,16.213 c 15,0.283 19.405,-0.043 30.413,-0.301 l -2.153,12.61 -49.869,0 14.031,-65.784 z m 302.86,-4.645 -0.082,0.236 0.082,0.027 -0.004,0.006 c 0.004,0 0.004,0 0.004,0 l -0.328,0.681 -4.097,11.936 c -10.385,-2.621 -23.453,-3.124 -32.579,0.166 -21.095,7.606 -24.247,39.447 1.56,43.052 2.558,0.32 6.951,0.468 9.764,0.392 l 3.189,-14.846 -11.857,0 0.002,-0.006 -0.002,0 2.801,-12.522 c 6.884,-0.066 9.86,0.043 29.431,-0.349 -2.931,13.7 -5.033,25.904 -7.961,39.618 -1.329,0.436 -2.693,0.832 -4.085,1.193 l -0.041,0.168 c -5.776,1.465 -12.609,2.236 -19.602,2.176 -0.347,0.004 -0.693,0.006 -1.044,0.006 -3.166,0 -6.136,-0.221 -8.913,-0.664 -7.618,-0.964 -14.115,-3.007 -19.903,-6.317 -19.952,-11.416 -17.144,-38.05 -3.027,-53.031 9.571,-10.152 23.882,-14.764 39.722,-15.152 l 0.322,-0.008 c 0.917,-0.026 1.846,-0.043 2.791,-0.043 4.356,0 8.509,0.293 12.465,0.866 2.072,0.297 4.104,0.691 6.099,1.169 1.787,0.369 3.55,0.783 5.293,1.246 z m -247.933,4.645 52.574,0 -2.736,12.689 -15.977,0 -11.3,53.095 -20.205,0 11.298,-53.095 -16.294,0 2.64,-12.689 z m 85.715,-6.144 30.641,0 1.571,36.558 c 0.035,0.777 0.055,1.591 0.072,2.455 0.016,0.863 0.035,1.952 0.035,3.267 0,1.123 -0.035,2.403 -0.087,3.855 -0.051,1.452 -0.123,3.076 -0.225,4.856 0.638,-2.161 1.442,-4.446 2.401,-6.862 0.96,-2.407 2.119,-5.026 3.423,-7.864 l 16.665,-36.265 31.746,0 -15.539,71.959 -18.592,0 c 4.147,-19.852 7.424,-38.241 12.717,-57.835 l -27.559,57.835 -19.341,0 -2.576,-57.941 -0.061,0 c -3.495,19.985 -7.924,38.099 -12.204,57.941 l -18.47,0 15.383,-71.959 z m -250.415002,6.144 48.793002,0 -2.636,12.215 -29.662,0 -2.732,13.195 27.952,0 -2.498,11.852 -27.999,0 -3.64,16.213 c 14.999,0.283 19.404,-0.043 30.415,-0.301 l -2.155,12.61 -49.870002,0 14.032,-65.784 z"
     style="fill:#000000;stroke:none" />
  <path
     inkscape:connector-curvature="0"
     id="path20"
     d="m 230.32172,67.820988 c 0.289,-0.076 0.525,-0.209 0.751,-0.298 1.907,-0.74 1.033,-2.522 -0.622,-2.364 -1.886,0.18 -3.886,0.611 -5.746,0.978 -1.228,0.244 -2.481,0.521 -3.747,0.824 -36.961,8.88 -85.926,43.167992 -68.449,92.634992 16.363,35.996 57.549,46.541 90.76,47.698 13.833,0.494 30.456,-0.72 49.519,-4.777 4.013,-0.853 7.081,-1.946 10.934,-4.407 l 42.809,-31.176 1.489,-1.064 c 1.612,-1.083 3.394,-0.489 2.52,1.905 -1.087,2.963 -4.05,6.856 -6.005,9.46 -1.634,2.174 -3.441,4.202 -5.727,6.372 -9.465,9.173 -20.463,18.223 -31.351,25.526 -3.71,2.49 -7.621,4.984 -11.932,6.247 -3.429,1.036 -6.942,1.928 -10.51,2.678 -26.886,5.665 -57.133,3.423 -82.86,-4.208 -33.459,-9.05 -70.382,-41.68 -61.426,-86.291 6.499,-34.734992 41.627,-57.291992 75.578,-66.663992 28.432,-7.85 59.523,-5.916 86.638,6.077 2.812,1.245 2.504,1.294 4.945,-0.597 l 50.886,-39.453 0.857,-0.642 c 1.797,-1.276 1.471,-2.5 0.144,-3.208 -0.753,-0.4 -1.53,-0.763 -2.295,-1.128 -8.88,-4.224 -18.205,-7.046 -26.564,-9.099 -2.984,-0.732 -5.986,-1.431 -8.989,-2.049 -36.27,-7.4670002 -67.208,-0.568 -96.159,12.01 -6.6,2.869 -13.035,6.404 -19.321,9.78 -6.524,3.79 -13.681,8.287 -20.471,12.854 -3.314,2.232 -6.442,4.514 -9.563,6.672 -1.926,1.538 -3.825,-0.735 -1.991,-2.478 2.471,-2.348 5.147,-4.745 7.949,-7.114 7.903,-6.686 16.8,-13.15 24.894,-17.719 23.353,-13.189 49.677,-22.1440002 77.061,-24.28800024 43.805,-3.42399996 95.323,9.92400024 117.421,51.15600024 11.568,21.591 7.957,42.053 -5.062,58.822992 -27.195,35.021 -73.705,46.457 -116.469,45.692 -33.342,-0.599 -69.797,-9.416 -83.453,-30.754 -14.813,-24.491 6.88,-44.169992 27.792,-55.063992 1.877,-0.976 3.782,-1.772 5.765,-2.545 z"
     style="fill:#000000;stroke:none" />
</svg>
